{
	"asset":{
		"generator":"Khronos glTF Blender I/O v4.2.57",
		"version":"2.0"
	},
	"scene":0,
	"scenes":[
		{
			"name":"Scene",
			"nodes":[
				6
			]
		}
	],
	"nodes":[
		{
			"mesh":0,
			"name":"spoiler",
			"translation":[
				0,
				-104.36860656738281,
				-45
			]
		},
		{
			"children":[
				0
			],
			"mesh":1,
			"name":"body",
			"translation":[
				0,
				-2.499999761581421,
				-15.000000953674316
			]
		},
		{
			"mesh":2,
			"name":"wheel-back-left",
			"translation":[
				30.000001907348633,
				-66,
				-30.000001907348633
			]
		},
		{
			"mesh":3,
			"name":"wheel-back-right",
			"translation":[
				-30.000001907348633,
				-66,
				-30.000001907348633
			]
		},
		{
			"mesh":4,
			"name":"wheel-front-left",
			"translation":[
				30.000001907348633,
				66,
				-30.000001907348633
			]
		},
		{
			"mesh":5,
			"name":"wheel-front-right",
			"translation":[
				-30.000001907348633,
				66,
				-30.000001907348633
			]
		},
		{
			"children":[
				1,
				2,
				3,
				4,
				5
			],
			"name":"sedan-sports",
			"rotation":[
				0.7071068286895752,
				0,
				0,
				0.7071068286895752
			],
			"scale":[
				0.0020345752127468586,
				0.0020345752127468586,
				0.0020345752127468586
			]
		}
	],
	"materials":[
		{
			"doubleSided":true,
			"name":"colormap",
			"pbrMetallicRoughness":{
				"baseColorTexture":{
					"index":0
				},
				"metallicFactor":0,
				"roughnessFactor":0.5527864098548889
			}
		}
	],
	"meshes":[
		{
			"name":"Scene.001",
			"primitives":[
				{
					"attributes":{
						"POSITION":0,
						"NORMAL":1,
						"TEXCOORD_0":2
					},
					"indices":3,
					"material":0
				}
			]
		},
		{
			"name":"Scene",
			"primitives":[
				{
					"attributes":{
						"POSITION":4,
						"NORMAL":5,
						"TEXCOORD_0":6
					},
					"indices":7,
					"material":0
				}
			]
		},
		{
			"name":"Scene.002",
			"primitives":[
				{
					"attributes":{
						"POSITION":8,
						"NORMAL":9,
						"TEXCOORD_0":10
					},
					"indices":11,
					"material":0
				}
			]
		},
		{
			"name":"Scene.003",
			"primitives":[
				{
					"attributes":{
						"POSITION":12,
						"NORMAL":13,
						"TEXCOORD_0":14
					},
					"indices":15,
					"material":0
				}
			]
		},
		{
			"name":"Scene.004",
			"primitives":[
				{
					"attributes":{
						"POSITION":16,
						"NORMAL":17,
						"TEXCOORD_0":18
					},
					"indices":11,
					"material":0
				}
			]
		},
		{
			"name":"Scene.005",
			"primitives":[
				{
					"attributes":{
						"POSITION":19,
						"NORMAL":20,
						"TEXCOORD_0":21
					},
					"indices":15,
					"material":0
				}
			]
		}
	],
	"textures":[
		{
			"sampler":0,
			"source":0
		}
	],
	"images":[
		{
			"mimeType":"image/png",
			"name":"colormap",
			"uri":"colormap.png"
		}
	],
	"accessors":[
		{
			"bufferView":0,
			"componentType":5126,
			"count":76,
			"max":[
				55,
				11.868618965148926,
				0
			],
			"min":[
				-55,
				-11.868618965148926,
				-30.000001907348633
			],
			"type":"VEC3"
		},
		{
			"bufferView":1,
			"componentType":5126,
			"count":76,
			"type":"VEC3"
		},
		{
			"bufferView":2,
			"componentType":5126,
			"count":76,
			"type":"VEC2"
		},
		{
			"bufferView":3,
			"componentType":5123,
			"count":144,
			"type":"SCALAR"
		},
		{
			"bufferView":4,
			"componentType":5126,
			"count":823,
			"max":[
				65,
				127.5,
				0
			],
			"min":[
				-65,
				-127.5,
				-94.99999237060547
			],
			"type":"VEC3"
		},
		{
			"bufferView":5,
			"componentType":5126,
			"count":823,
			"type":"VEC3"
		},
		{
			"bufferView":6,
			"componentType":5126,
			"count":823,
			"type":"VEC2"
		},
		{
			"bufferView":7,
			"componentType":5123,
			"count":2133,
			"type":"SCALAR"
		},
		{
			"bufferView":8,
			"componentType":5126,
			"count":288,
			"max":[
				30.000019073486328,
				30.000001907348633,
				30.000001907348633
			],
			"min":[
				-5,
				-30.000001907348633,
				-30.000001907348633
			],
			"type":"VEC3"
		},
		{
			"bufferView":9,
			"componentType":5126,
			"count":288,
			"type":"VEC3"
		},
		{
			"bufferView":10,
			"componentType":5126,
			"count":288,
			"type":"VEC2"
		},
		{
			"bufferView":11,
			"componentType":5123,
			"count":996,
			"type":"SCALAR"
		},
		{
			"bufferView":12,
			"componentType":5126,
			"count":288,
			"max":[
				5,
				30.000001907348633,
				30.000001907348633
			],
			"min":[
				-30.000019073486328,
				-30.000001907348633,
				-30.000001907348633
			],
			"type":"VEC3"
		},
		{
			"bufferView":13,
			"componentType":5126,
			"count":288,
			"type":"VEC3"
		},
		{
			"bufferView":14,
			"componentType":5126,
			"count":288,
			"type":"VEC2"
		},
		{
			"bufferView":15,
			"componentType":5123,
			"count":996,
			"type":"SCALAR"
		},
		{
			"bufferView":16,
			"componentType":5126,
			"count":288,
			"max":[
				30.000019073486328,
				30.000001907348633,
				30.000001907348633
			],
			"min":[
				-5,
				-30.000001907348633,
				-30.000001907348633
			],
			"type":"VEC3"
		},
		{
			"bufferView":17,
			"componentType":5126,
			"count":288,
			"type":"VEC3"
		},
		{
			"bufferView":18,
			"componentType":5126,
			"count":288,
			"type":"VEC2"
		},
		{
			"bufferView":19,
			"componentType":5126,
			"count":288,
			"max":[
				5,
				30.000001907348633,
				30.000001907348633
			],
			"min":[
				-30.000019073486328,
				-30.000001907348633,
				-30.000001907348633
			],
			"type":"VEC3"
		},
		{
			"bufferView":20,
			"componentType":5126,
			"count":288,
			"type":"VEC3"
		},
		{
			"bufferView":21,
			"componentType":5126,
			"count":288,
			"type":"VEC2"
		}
	],
	"bufferViews":[
		{
			"buffer":0,
			"byteLength":912,
			"byteOffset":0,
			"target":34962
		},
		{
			"buffer":0,
			"byteLength":912,
			"byteOffset":912,
			"target":34962
		},
		{
			"buffer":0,
			"byteLength":608,
			"byteOffset":1824,
			"target":34962
		},
		{
			"buffer":0,
			"byteLength":288,
			"byteOffset":2432,
			"target":34963
		},
		{
			"buffer":0,
			"byteLength":9876,
			"byteOffset":2720,
			"target":34962
		},
		{
			"buffer":0,
			"byteLength":9876,
			"byteOffset":12596,
			"target":34962
		},
		{
			"buffer":0,
			"byteLength":6584,
			"byteOffset":22472,
			"target":34962
		},
		{
			"buffer":0,
			"byteLength":4266,
			"byteOffset":29056,
			"target":34963
		},
		{
			"buffer":0,
			"byteLength":3456,
			"byteOffset":33324,
			"target":34962
		},
		{
			"buffer":0,
			"byteLength":3456,
			"byteOffset":36780,
			"target":34962
		},
		{
			"buffer":0,
			"byteLength":2304,
			"byteOffset":40236,
			"target":34962
		},
		{
			"buffer":0,
			"byteLength":1992,
			"byteOffset":42540,
			"target":34963
		},
		{
			"buffer":0,
			"byteLength":3456,
			"byteOffset":44532,
			"target":34962
		},
		{
			"buffer":0,
			"byteLength":3456,
			"byteOffset":47988,
			"target":34962
		},
		{
			"buffer":0,
			"byteLength":2304,
			"byteOffset":51444,
			"target":34962
		},
		{
			"buffer":0,
			"byteLength":1992,
			"byteOffset":53748,
			"target":34963
		},
		{
			"buffer":0,
			"byteLength":3456,
			"byteOffset":55740,
			"target":34962
		},
		{
			"buffer":0,
			"byteLength":3456,
			"byteOffset":59196,
			"target":34962
		},
		{
			"buffer":0,
			"byteLength":2304,
			"byteOffset":62652,
			"target":34962
		},
		{
			"buffer":0,
			"byteLength":3456,
			"byteOffset":64956,
			"target":34962
		},
		{
			"buffer":0,
			"byteLength":3456,
			"byteOffset":68412,
			"target":34962
		},
		{
			"buffer":0,
			"byteLength":2304,
			"byteOffset":71868,
			"target":34962
		}
	],
	"samplers":[
		{
			"magFilter":9729,
			"minFilter":9987
		}
	],
	"buffers":[
		{
			"byteLength":74172,
			"uri":"robber.bin"
		}
	]
}
