{
	"asset":{
		"generator":"Khronos glTF Blender I/O v4.2.57",
		"version":"2.0"
	},
	"scene":0,
	"scenes":[
		{
			"name":"Scene",
			"nodes":[
				5
			]
		}
	],
	"nodes":[
		{
			"mesh":0,
			"name":"body",
			"translation":[
				0,
				0.20000001788139343,
				-0.10000000894069672
			]
		},
		{
			"mesh":1,
			"name":"wheel_backLeft",
			"rotation":[
				0,
				1,
				0,
				4.371139183945161e-08
			],
			"translation":[
				-0.30000004172325134,
				0.30000004172325134,
				0.7600000500679016
			]
		},
		{
			"mesh":1,
			"name":"wheel_backRight",
			"translation":[
				0.30000004172325134,
				0.30000004172325134,
				0.7600000500679016
			]
		},
		{
			"mesh":1,
			"name":"wheel_frontLeft",
			"rotation":[
				0,
				1,
				0,
				4.371139183945161e-08
			],
			"translation":[
				-0.30000004172325134,
				0.30000004172325134,
				-0.7600000500679016
			]
		},
		{
			"mesh":1,
			"name":"wheel_frontRight",
			"translation":[
				0.30000004172325134,
				0.30000004172325134,
				-0.7600000500679016
			]
		},
		{
			"children":[
				0,
				1,
				2,
				3,
				4
			],
			"name":"Taxi",
			"scale":[
				0.1776406466960907,
				0.1776406466960907,
				0.1776406466960907
			]
		}
	],
	"materials":[
		{
			"name":"plastic",
			"pbrMetallicRoughness":{
				"baseColorFactor":[
					0.11697065085172653,
					0.11697065085172653,
					0.11697065085172653,
					1
				]
			}
		},
		{
			"name":"carTire",
			"pbrMetallicRoughness":{
				"baseColorFactor":[
					0.046665072441101074,
					0.046665072441101074,
					0.046665072441101074,
					1
				]
			}
		},
		{
			"name":"paintYellow",
			"pbrMetallicRoughness":{
				"baseColorFactor":[
					1,
					0.5071038603782654,
					0.05473494902253151,
					1
				]
			}
		},
		{
			"name":"lightFront",
			"pbrMetallicRoughness":{
				"baseColorFactor":[
					0.9130986928939819,
					0.48514997959136963,
					0.05448026955127716,
					1
				]
			}
		},
		{
			"name":"_defaultMat"
		},
		{
			"name":"window",
			"pbrMetallicRoughness":{
				"baseColorFactor":[
					0.8631572723388672,
					0.8631572723388672,
					0.8631572723388672,
					1
				]
			}
		},
		{
			"name":"lightBack",
			"pbrMetallicRoughness":{
				"baseColorFactor":[
					1,
					0.09989872574806213,
					0.042311400175094604,
					1
				]
			}
		},
		{
			"name":"wheelInside",
			"pbrMetallicRoughness":{
				"baseColorFactor":[
					0.5971662998199463,
					0.6119445562362671,
					0.67317795753479,
					1
				]
			}
		}
	],
	"meshes":[
		{
			"name":"Mesh body",
			"primitives":[
				{
					"attributes":{
						"POSITION":0,
						"NORMAL":1,
						"TEXCOORD_0":2
					},
					"indices":3,
					"material":0
				},
				{
					"attributes":{
						"POSITION":4,
						"NORMAL":5,
						"TEXCOORD_0":6
					},
					"indices":7,
					"material":1
				},
				{
					"attributes":{
						"POSITION":8,
						"NORMAL":9,
						"TEXCOORD_0":10
					},
					"indices":11,
					"material":2
				},
				{
					"attributes":{
						"POSITION":12,
						"NORMAL":13,
						"TEXCOORD_0":14
					},
					"indices":15,
					"material":3
				},
				{
					"attributes":{
						"POSITION":16,
						"NORMAL":17,
						"TEXCOORD_0":18
					},
					"indices":19,
					"material":4
				},
				{
					"attributes":{
						"POSITION":20,
						"NORMAL":21,
						"TEXCOORD_0":22
					},
					"indices":23,
					"material":5
				},
				{
					"attributes":{
						"POSITION":24,
						"NORMAL":25,
						"TEXCOORD_0":26
					},
					"indices":27,
					"material":6
				},
				{
					"attributes":{
						"POSITION":28,
						"NORMAL":29,
						"TEXCOORD_0":30
					},
					"indices":31,
					"material":7
				}
			]
		},
		{
			"name":"Mesh wheel_frontRight",
			"primitives":[
				{
					"attributes":{
						"POSITION":32,
						"NORMAL":33,
						"TEXCOORD_0":34
					},
					"indices":35,
					"material":1
				},
				{
					"attributes":{
						"POSITION":36,
						"NORMAL":37,
						"TEXCOORD_0":38
					},
					"indices":39,
					"material":0
				}
			]
		}
	],
	"accessors":[
		{
			"bufferView":0,
			"componentType":5126,
			"count":497,
			"max":[
				0.6499999761581421,
				0.4899999797344208,
				1.4499999284744263
			],
			"min":[
				-0.6499999761581421,
				0,
				-1.2000000476837158
			],
			"type":"VEC3"
		},
		{
			"bufferView":1,
			"componentType":5126,
			"count":497,
			"type":"VEC3"
		},
		{
			"bufferView":2,
			"componentType":5126,
			"count":497,
			"type":"VEC2"
		},
		{
			"bufferView":3,
			"componentType":5123,
			"count":996,
			"type":"SCALAR"
		},
		{
			"bufferView":4,
			"componentType":5126,
			"count":284,
			"max":[
				0.6499999761581421,
				0.4000000059604645,
				1.159999966621399
			],
			"min":[
				-0.6499999761581421,
				0,
				-0.9600000381469727
			],
			"type":"VEC3"
		},
		{
			"bufferView":5,
			"componentType":5126,
			"count":284,
			"type":"VEC3"
		},
		{
			"bufferView":6,
			"componentType":5126,
			"count":284,
			"type":"VEC2"
		},
		{
			"bufferView":7,
			"componentType":5123,
			"count":492,
			"type":"SCALAR"
		},
		{
			"bufferView":8,
			"componentType":5126,
			"count":186,
			"max":[
				0.75,
				1.100000023841858,
				1.4499999284744263
			],
			"min":[
				-0.75,
				0.30000001192092896,
				-1.149999976158142
			],
			"type":"VEC3"
		},
		{
			"bufferView":9,
			"componentType":5126,
			"count":186,
			"type":"VEC3"
		},
		{
			"bufferView":10,
			"componentType":5126,
			"count":186,
			"type":"VEC2"
		},
		{
			"bufferView":11,
			"componentType":5123,
			"count":426,
			"type":"SCALAR"
		},
		{
			"bufferView":12,
			"componentType":5126,
			"count":8,
			"max":[
				0.550000011920929,
				0.6000000238418579,
				-1.149999976158142
			],
			"min":[
				-0.550000011920929,
				0.5,
				-1.149999976158142
			],
			"type":"VEC3"
		},
		{
			"bufferView":13,
			"componentType":5126,
			"count":8,
			"type":"VEC3"
		},
		{
			"bufferView":14,
			"componentType":5126,
			"count":8,
			"type":"VEC2"
		},
		{
			"bufferView":15,
			"componentType":5123,
			"count":12,
			"type":"SCALAR"
		},
		{
			"bufferView":16,
			"componentType":5126,
			"count":54,
			"max":[
				0.75,
				1.2999999523162842,
				0.550000011920929
			],
			"min":[
				-0.75,
				0.30000001192092896,
				-0.32290220260620117
			],
			"type":"VEC3"
		},
		{
			"bufferView":17,
			"componentType":5126,
			"count":54,
			"type":"VEC3"
		},
		{
			"bufferView":18,
			"componentType":5126,
			"count":54,
			"type":"VEC2"
		},
		{
			"bufferView":19,
			"componentType":5123,
			"count":54,
			"type":"SCALAR"
		},
		{
			"bufferView":20,
			"componentType":5126,
			"count":20,
			"max":[
				0.550000011920929,
				1.0219130516052246,
				0.9128609299659729
			],
			"min":[
				-0.550000011920929,
				0.6000000238418579,
				-0.550000011920929
			],
			"type":"VEC3"
		},
		{
			"bufferView":21,
			"componentType":5126,
			"count":20,
			"type":"VEC3"
		},
		{
			"bufferView":22,
			"componentType":5126,
			"count":20,
			"type":"VEC2"
		},
		{
			"bufferView":23,
			"componentType":5123,
			"count":36,
			"type":"SCALAR"
		},
		{
			"bufferView":24,
			"componentType":5126,
			"count":8,
			"max":[
				0.550000011920929,
				0.5,
				1.4499999284744263
			],
			"min":[
				-0.550000011920929,
				0.4000000059604645,
				1.4499999284744263
			],
			"type":"VEC3"
		},
		{
			"bufferView":25,
			"componentType":5126,
			"count":8,
			"type":"VEC3"
		},
		{
			"bufferView":26,
			"componentType":5126,
			"count":8,
			"type":"VEC2"
		},
		{
			"bufferView":27,
			"componentType":5123,
			"count":12,
			"type":"SCALAR"
		},
		{
			"bufferView":28,
			"componentType":5126,
			"count":8,
			"max":[
				0.2750000059604645,
				0.5,
				-1.116666555404663
			],
			"min":[
				-0.2750000059604645,
				0.20000000298023224,
				-1.149999976158142
			],
			"type":"VEC3"
		},
		{
			"bufferView":29,
			"componentType":5126,
			"count":8,
			"type":"VEC3"
		},
		{
			"bufferView":30,
			"componentType":5126,
			"count":8,
			"type":"VEC2"
		},
		{
			"bufferView":31,
			"componentType":5123,
			"count":12,
			"type":"SCALAR"
		},
		{
			"bufferView":32,
			"componentType":5126,
			"count":264,
			"max":[
				0.30000001192092896,
				0.30000001192092896,
				0.30000001192092896
			],
			"min":[
				0.10000000149011612,
				-0.30000001192092896,
				-0.30000001192092896
			],
			"type":"VEC3"
		},
		{
			"bufferView":33,
			"componentType":5126,
			"count":264,
			"type":"VEC3"
		},
		{
			"bufferView":34,
			"componentType":5126,
			"count":264,
			"type":"VEC2"
		},
		{
			"bufferView":35,
			"componentType":5123,
			"count":498,
			"type":"SCALAR"
		},
		{
			"bufferView":36,
			"componentType":5126,
			"count":168,
			"max":[
				0.30000001192092896,
				0.1648801863193512,
				0.1648801863193512
			],
			"min":[
				0.20000000298023224,
				-0.1648801863193512,
				-0.1648801863193512
			],
			"type":"VEC3"
		},
		{
			"bufferView":37,
			"componentType":5126,
			"count":168,
			"type":"VEC3"
		},
		{
			"bufferView":38,
			"componentType":5126,
			"count":168,
			"type":"VEC2"
		},
		{
			"bufferView":39,
			"componentType":5123,
			"count":354,
			"type":"SCALAR"
		}
	],
	"bufferViews":[
		{
			"buffer":0,
			"byteLength":5964,
			"byteOffset":0,
			"target":34962
		},
		{
			"buffer":0,
			"byteLength":5964,
			"byteOffset":5964,
			"target":34962
		},
		{
			"buffer":0,
			"byteLength":3976,
			"byteOffset":11928,
			"target":34962
		},
		{
			"buffer":0,
			"byteLength":1992,
			"byteOffset":15904,
			"target":34963
		},
		{
			"buffer":0,
			"byteLength":3408,
			"byteOffset":17896,
			"target":34962
		},
		{
			"buffer":0,
			"byteLength":3408,
			"byteOffset":21304,
			"target":34962
		},
		{
			"buffer":0,
			"byteLength":2272,
			"byteOffset":24712,
			"target":34962
		},
		{
			"buffer":0,
			"byteLength":984,
			"byteOffset":26984,
			"target":34963
		},
		{
			"buffer":0,
			"byteLength":2232,
			"byteOffset":27968,
			"target":34962
		},
		{
			"buffer":0,
			"byteLength":2232,
			"byteOffset":30200,
			"target":34962
		},
		{
			"buffer":0,
			"byteLength":1488,
			"byteOffset":32432,
			"target":34962
		},
		{
			"buffer":0,
			"byteLength":852,
			"byteOffset":33920,
			"target":34963
		},
		{
			"buffer":0,
			"byteLength":96,
			"byteOffset":34772,
			"target":34962
		},
		{
			"buffer":0,
			"byteLength":96,
			"byteOffset":34868,
			"target":34962
		},
		{
			"buffer":0,
			"byteLength":64,
			"byteOffset":34964,
			"target":34962
		},
		{
			"buffer":0,
			"byteLength":24,
			"byteOffset":35028,
			"target":34963
		},
		{
			"buffer":0,
			"byteLength":648,
			"byteOffset":35052,
			"target":34962
		},
		{
			"buffer":0,
			"byteLength":648,
			"byteOffset":35700,
			"target":34962
		},
		{
			"buffer":0,
			"byteLength":432,
			"byteOffset":36348,
			"target":34962
		},
		{
			"buffer":0,
			"byteLength":108,
			"byteOffset":36780,
			"target":34963
		},
		{
			"buffer":0,
			"byteLength":240,
			"byteOffset":36888,
			"target":34962
		},
		{
			"buffer":0,
			"byteLength":240,
			"byteOffset":37128,
			"target":34962
		},
		{
			"buffer":0,
			"byteLength":160,
			"byteOffset":37368,
			"target":34962
		},
		{
			"buffer":0,
			"byteLength":72,
			"byteOffset":37528,
			"target":34963
		},
		{
			"buffer":0,
			"byteLength":96,
			"byteOffset":37600,
			"target":34962
		},
		{
			"buffer":0,
			"byteLength":96,
			"byteOffset":37696,
			"target":34962
		},
		{
			"buffer":0,
			"byteLength":64,
			"byteOffset":37792,
			"target":34962
		},
		{
			"buffer":0,
			"byteLength":24,
			"byteOffset":37856,
			"target":34963
		},
		{
			"buffer":0,
			"byteLength":96,
			"byteOffset":37880,
			"target":34962
		},
		{
			"buffer":0,
			"byteLength":96,
			"byteOffset":37976,
			"target":34962
		},
		{
			"buffer":0,
			"byteLength":64,
			"byteOffset":38072,
			"target":34962
		},
		{
			"buffer":0,
			"byteLength":24,
			"byteOffset":38136,
			"target":34963
		},
		{
			"buffer":0,
			"byteLength":3168,
			"byteOffset":38160,
			"target":34962
		},
		{
			"buffer":0,
			"byteLength":3168,
			"byteOffset":41328,
			"target":34962
		},
		{
			"buffer":0,
			"byteLength":2112,
			"byteOffset":44496,
			"target":34962
		},
		{
			"buffer":0,
			"byteLength":996,
			"byteOffset":46608,
			"target":34963
		},
		{
			"buffer":0,
			"byteLength":2016,
			"byteOffset":47604,
			"target":34962
		},
		{
			"buffer":0,
			"byteLength":2016,
			"byteOffset":49620,
			"target":34962
		},
		{
			"buffer":0,
			"byteLength":1344,
			"byteOffset":51636,
			"target":34962
		},
		{
			"buffer":0,
			"byteLength":708,
			"byteOffset":52980,
			"target":34963
		}
	],
	"buffers":[
		{
			"byteLength":53688,
			"uri":"taxi.bin"
		}
	]
}
